<svg xmlns="http://www.w3.org/2000/svg" version="1.1" xmlns:xlink="http://www.w3.org/1999/xlink" xmlns:svgjs="http://svgjs.dev/svgjs" width="1440" height="560" preserveAspectRatio="none" viewBox="0 0 1440 560"><g mask="url(&quot;#SvgjsMask1864&quot;)" fill="none"><rect width="1440" height="560" x="0" y="0" fill="url(&quot;#SvgjsLinearGradient1865&quot;)"></rect><path d="M1440 0L1100.5 0L1440 88.45z" fill="rgba(255, 255, 255, .1)"></path><path d="M1100.5 0L1440 88.45L1440 188.01L961.54 0z" fill="rgba(255, 255, 255, .075)"></path><path d="M961.54 0L1440 188.01L1440 308.59L809.0899999999999 0z" fill="rgba(255, 255, 255, .05)"></path><path d="M809.0899999999999 0L1440 308.59L1440 476.75L765.04 0z" fill="rgba(255, 255, 255, .025)"></path><path d="M0 560L339.34 560L0 495.64z" fill="rgba(0, 0, 0, .1)"></path><path d="M0 495.64L339.34 560L745.3699999999999 560L0 339.44z" fill="rgba(0, 0, 0, .075)"></path><path d="M0 339.44L745.3699999999999 560L991.1299999999999 560L0 207.84z" fill="rgba(0, 0, 0, .05)"></path><path d="M0 207.84000000000003L991.1299999999999 560L1257 560L0 71.92000000000004z" fill="rgba(0, 0, 0, .025)"></path></g><defs><mask id="SvgjsMask1864"><rect width="1440" height="560" fill="#ffffff"></rect></mask><linearGradient x1="50%" y1="0%" x2="50%" y2="100%" gradientUnits="userSpaceOnUse" id="SvgjsLinearGradient1865"><stop stop-color="rgba(14, 118, 253, 1)" offset="0.94"></stop><stop stop-color="rgba(0, 111, 255, 1)" offset="0.94"></stop><stop stop-color="rgba(14, 118, 253, 1)" offset="1"></stop></linearGradient></defs></svg>